<?xml version="1.0" encoding="UTF-8" standalone="no"?>
<svg
   width="337"
   height="292"
   viewBox="0 0 337 292"
   fill="none"
   version="1.1"
   id="svg117"
   sodipodi:docname="tel-banner.svg"
   inkscape:version="1.3 (0e150ed6c4, 2023-07-21)"
   xmlns:inkscape="http://www.inkscape.org/namespaces/inkscape"
   xmlns:sodipodi="http://sodipodi.sourceforge.net/DTD/sodipodi-0.dtd"
   xmlns="http://www.w3.org/2000/svg"
   xmlns:svg="http://www.w3.org/2000/svg">
  <defs
     id="defs117" />
  <sodipodi:namedview
     id="namedview117"
     pagecolor="#ffffff"
     bordercolor="#000000"
     borderopacity="0.25"
     inkscape:showpageshadow="2"
     inkscape:pageopacity="0.0"
     inkscape:pagecheckerboard="0"
     inkscape:deskcolor="#d1d1d1"
     inkscape:zoom="2.5809524"
     inkscape:cx="230.34133"
     inkscape:cy="157.5"
     inkscape:window-width="1920"
     inkscape:window-height="1009"
     inkscape:window-x="-8"
     inkscape:window-y="-8"
     inkscape:window-maximized="1"
     inkscape:current-layer="svg117" />
  <path
     d="m 76.952295,117.29629 -20.899,10.994 c 0,0 -1.3,-3.336 -2.277,0.379 -6.749,-4.549 -18.133,-9.402 -18.133,-9.402 l -3.5781,2.957 c 0,0 13.9861,12.512 20.7361,15.317 9.92,-2.274 27.241,-7.506 27.241,-7.506 z"
     fill="#b43f2c"
     id="path1" />
  <path
     d="m 106.14529,180.84029 c 0,0 1.382,13.043 6.343,16 -2.196,-8.796 -2.928,-15.848 -2.928,-15.848 z"
     fill="#ffc69c"
     id="path2" />
  <path
     d="m 50.850295,78.698689 c 0,0 6.994,-14.103998 14.719,-13.876698 7.725,0.2273 10.571,13.497398 12.767,15.999498 2.195,2.5787 9.189,1.441 11.303,4.3983 -6.587,7.4305 -8.213,8.1135 -8.213,8.1135 l -2.196,-3.185 1.22,4.095 -2.196,2.199 -1.789,-2.427 1.22,3.337 -2.358,2.199 -12.929,-1.668 z"
     fill="#3f6593"
     id="path3" />
  <path
     d="m 51.419295,77.486389 c 0,0 -7.563,-0.3793 -6.75,4.4736 0.814,4.8528 1.383,8.3413 -0.65,9.2513 -2.033,0.91 -1.382,7.051 -1.382,7.051 l 3.984,0.759 1.545,-4.094 -0.65,4.473 3.334,0.531 0.162,-2.958 0.57,3.337001 6.342,1.289 -1.138,-23.885701 z"
     fill="#3f6593"
     id="path4" />
  <path
     d="m 53.859295,79.229889 c 0,0 -5.286,5.9146 -3.497,12.3604 1.789,6.445 7.807,19.336001 7.807,19.336001 0,0 10.083,-2.654 13.498,-4.322 l 3.741,8.72 10.083,-2.654 -18.621,-32.226701 c 0.081,-0.076 -9.677,-1.7443 -13.011,-1.2137 z"
     fill="#ffc69c"
     id="path5" />
  <path
     d="m 50.850295,80.139089 c 0,0 5.123,4.8535 10.165,5.9146 5.123,1.0618 -2.358,-1.8955 -2.358,-1.8955 0,0 9.514,2.578 12.767,2.2748 -2.602,-6.4452 -4.147,-9.7817 -4.147,-9.7817 h -8.132 z"
     fill="#3f6593"
     id="path6" />
  <path
     d="m 68.008295,87.797389 c 0,0 1.952,-5.7627 6.343,-3.2606 4.391,2.5027 2.439,10.0845 -2.277,9.0995"
     fill="#ffc69c"
     id="path7" />
  <path
     d="m 105.90229,260.30729 -23.662995,5.763 32.200995,2.199 -3.822,-5.232 z"
     fill="#e25e44"
     id="path8" />
  <path
     d="m 67.440295,227.17129 c 0,0 30.493005,25.1 32.283005,28.133 1.78899,3.033 -0.569,4.17 5.28499,6.597 1.789,1.365 2.684,2.502 2.684,2.502 0,0 3.252,0.303 5.041,-0.834 -13.00999,-20.17 -39.356995,-52.17 -39.356995,-52.17 z"
     fill="#080638"
     id="path9" />
  <path
     d="m 76.791295,165.90129 -37.406,106.842 5.204,2.579 c 0,0 3.66,-8.872 7.319,-10.844 3.659,-1.971 2.44,-6.824 3.984,-13.421 1.546,-6.597 5.856,-9.176 7.645,-14.863 1.87,-5.687 37.648995,-68.549 37.648995,-68.549 z"
     fill="#0b2751"
     id="path10" />
  <path
     d="m 90.614295,109.94129 -7.644,-2.048 -7.481,7.432 0.732,40.113 c 0,0 -4.554,2.502 -1.22,6.294 -3.09,0.227 0,2.654 0,2.654 0,0 -2.44,1.365 0,3.108 2.439,1.82 17.564,3.792 25.939995,2.503 8.376,-1.365 8.376,-8.265 8.376,-8.265 z"
     fill="#e25e44"
     id="path11" />
  <path
     d="m 109.31829,182.28029 -3.172,-0.227 c -0.163,0 -0.813,-0.227 -2.683,-2.805 -1.789,-2.503 -0.976,-3.792 -0.651,-4.171 l -23.418995,-54.9 0.325,-0.152 23.500995,55.128 -0.082,0.076 c -0.081,0.076 -1.219,1.213 0.651,3.791 1.789,2.503 2.44,2.654 2.44,2.654 l 2.683,0.152 -13.57999,-56.037 -6.505005,-13.043 0.325,-0.152 6.506005,13.043 z"
     fill="#b43f2c"
     id="path12" />
  <path
     d="m 79.473295,120.10129 23.500995,54.976 c 0,0 -1.382,1.289 0.569,4.019 1.952,2.73 2.603,2.73 2.603,2.73 l 2.926,0.151 -13.57899,-56.264 -6.506005,-13.042"
     fill="#e25e44"
     id="path13" />
  <path
     d="m 95.4923,125.86429 c -1.382005,-2.048 -2.520005,-4.247 -3.578005,-6.37 -1.057,-2.199 -2.114,-4.398 -2.927,-6.673 1.383,2.047 2.521,4.246 3.578,6.37 1.057,2.123 2.114,4.322 2.927005,6.673 z"
     fill="#b43f2c"
     id="path14" />
  <path
     d="m 79.473295,120.10029 c 2.114,4.55 4.147,9.1 6.099,13.65 l 5.936,13.724 5.855005,13.801 c 1.87,4.626 3.82199,9.175 5.61099,13.877 -2.114,-4.55 -4.14699,-9.099 -6.09899,-13.65 l -5.936005,-13.724 -5.774,-13.801 c -1.951,-4.626 -3.903,-9.175 -5.692,-13.877 z"
     fill="#b43f2c"
     id="path15" />
  <path
     d="m 75.000295,164.38529 c 1.301,0.455 2.603,0.758 3.904,1.062 1.301,0.303 2.602,0.607 3.903,0.834 2.602,0.455 5.286,0.682 8.05,0.834 -1.382,0.228 -2.683,0.304 -4.065,0.228 -1.383,0 -2.766,-0.152 -4.066,-0.38 -1.383,-0.227 -2.684,-0.53 -3.985,-0.985 -1.301,-0.38 -2.52,-0.91 -3.741,-1.593 z"
     fill="#b43f2c"
     id="path16" />
  <path
     d="m 79.067295,162.48929 c 1.464,0.304 2.846,0.531 4.31,0.758 1.464,0.228 2.846,0.456 4.31,0.683 l 8.620005,1.213 c -1.464005,0.076 -2.928005,0.076 -4.392005,-0.075 -1.464,-0.076 -2.927,-0.228 -4.31,-0.456 -3.008,-0.455 -5.854,-1.061 -8.538,-2.123 z"
     fill="#b43f2c"
     id="path17" />
  <path
     d="m 53.858295,128.59429 c 0.325,0.152 0.569,0.38 0.732,0.607 0.162,0.228 0.325,0.531 0.406,0.834 0.163,0.607 0.081,1.213 -0.244,1.745 -0.162,-0.304 -0.244,-0.532 -0.325,-0.835 -0.082,-0.303 -0.162,-0.53 -0.244,-0.758 z"
     fill="#a32d21"
     id="path18" />
  <path
     d="m 56.055295,128.06329 c 0.651,0.607 0.976,1.365 1.22,2.199 0.162,0.834 0.243,1.668 -0.163,2.427 l -0.244,-1.138 -0.244,-1.137 c -0.244,-0.759 -0.407,-1.517 -0.569,-2.351 z"
     fill="#a32d21"
     id="path19" />
  <path
     d="m 39.383295,272.74329 -29.355199,7.659 h 33.991199 l 0.569,-5.081 z"
     fill="#e25e44"
     id="path20" />
  <path
     d="m 59.387295,101.97829 c 0,0 3.903,-3.640001 5.774,-7.128001 4.472,5.612001 2.521,15.166001 -5.774,7.128001 z"
     fill="#080638"
     id="path21" />
  <path
     d="m 60.526295,100.84129 0.732,0.986 5.367,-4.702001 c -0.325,-0.834 -0.814,-1.592 -1.383,-2.275 -1.3,2.275 -3.415,4.626 -4.716,5.991001 z"
     fill="#ffffff"
     id="path22" />
  <path
     d="m 55.974295,94.622289 c 0.243,0.682 0.081,1.289 -0.244,1.365 -0.325,0.075 -0.813,-0.304 -1.057,-0.986 -0.245,-0.683 -0.082,-1.289 0.244,-1.365 0.406,-0.076 0.894,0.379 1.057,0.986 z"
     fill="#080638"
     id="path23" />
  <path
     d="m 68.008295,87.798589 c 0.244,-0.8339 0.569,-1.6683 1.139,-2.3508 0.569,-0.6825 1.301,-1.365 2.276,-1.6683 0.976,-0.3032 2.033,-0.0753 2.928,0.3793 0.813,0.4552 1.626,1.0617 2.114,1.8955 0.976,1.5929 0.976,3.564 0.244,5.233 -0.407,0.834 -0.976,1.592 -1.789,2.047 -0.813,0.455 -1.87,0.607 -2.765,0.303 0.895,0.076 1.871,-0.075 2.521,-0.607 0.732,-0.454 1.139,-1.213 1.464,-1.971 0.569,-1.517 0.488,-3.3367 -0.407,-4.7011 -0.406,-0.7585 -1.057,-1.2896 -1.789,-1.6683 -0.732,-0.4552 -1.545,-0.6071 -2.358,-0.4552 -0.813,0.152 -1.545,0.6825 -2.114,1.365 -0.65,0.6825 -1.139,1.441 -1.464,2.1989 z"
     fill="#e09a69"
     id="path24" />
  <path
     d="m 56.541295,91.438289 c 0,3.337 -0.325,6.673 -0.732,9.934001 l -0.569,-0.228 c 1.464,-1.365001 3.009,-2.654001 4.635,-3.943001 -1.301,1.517 -2.684,2.958001 -4.066,4.398001 l -0.65,0.683 0.081,-0.91 c 0.163,-3.337001 0.569,-6.673001 1.301,-9.934001 z"
     fill="#e09a69"
     id="path25" />
  <path
     d="m 73.862295,85.902089 c -0.569,-0.076 -1.138,0 -1.626,0.2273 -0.407,0.2279 -0.732,0.6825 -0.894,1.1377 -0.163,0.4546 -0.326,0.9858 -0.326,1.5163 -0.081,0.5309 -0.081,1.0619 -0.081,1.5919 l -0.488,-0.303 c 0.244,-0.075 0.569,-0.227 0.895,-0.303 0.162,0 0.325,-0.076 0.487,-0.076 0.163,0 0.407,0.076 0.57,0.228 0.244,0.379 0.162,0.682 0,0.91 -0.082,0.227 -0.244,0.53 -0.407,0.682 0.081,-0.227 0.163,-0.53 0.163,-0.758 0.081,-0.228 0,-0.531 -0.082,-0.607 -0.081,-0.076 -0.325,0 -0.569,0.076 -0.244,0.076 -0.488,0.227 -0.732,0.303 l -0.487,0.228 v -0.455 c 0,-0.531 -0.082,-1.138 0,-1.6682 0.081,-0.5312 0.162,-1.1377 0.487,-1.6683 0.244,-0.5311 0.732,-1.0617 1.383,-1.2136 0.488,-0.2273 1.138,-0.1514 1.707,0.1519 z"
     fill="#e09a69"
     id="path26" />
  <path
     d="m 60.120295,91.437289 c 0.244,0.683 0.082,1.289 -0.244,1.365 -0.325,0.076 -0.813,-0.303 -1.057,-0.985 -0.244,-0.683 -0.081,-1.289 0.244,-1.365 0.325,-0.076 0.813,0.303 1.057,0.985 z"
     fill="#080638"
     id="path27" />
  <path
     d="m 54.917295,90.226289 c 0,0 -3.497,-1.2894 -2.765,2.957 z"
     fill="#3f6593"
     id="path28" />
  <path
     d="m 57.436295,88.935089 c 0,0 -1.708,-4.3983 4.635,-2.1994 z"
     fill="#3f6593"
     id="path29" />
  <path
     d="m 82.969295,107.89229 -1.057,-1.895 -6.423,9.327 z"
     fill="#b43f2c"
     id="path30" />
  <path
     d="m 37.920295,115.47529 c 0,0 -0.326,3.185 0.163,4.778 0.487,1.516 -1.79,1.44 -2.847,-0.455 -0.9759,-1.896 2.684,-4.323 2.684,-4.323 z"
     fill="#efb38b"
     id="path31" />
  <path
     d="m 25.396995,116.31129 c 0,0 0.7319,-3.186 1.7082,-3.868 1.0572,-0.683 14.3111,-6.218 16.4261,-7.583 0.895,0.986 0.406,3.033 -0.814,3.792 -1.138,0.834 -9.3508,4.246 -9.3508,4.246 0,0 4.3098,1.289 5.0418,1.972 0.731,0.682 -0.813,2.047 -1.057,2.274 -0.244,0.228 0,3.034 -1.302,3.413 0.814,1.365 -0.569,2.805 -1.3,3.108 -1.871,0.532 -7.8885,-0.227 -9.5146,-0.379 -1.6267,-0.075 0.1623,-6.975 0.1623,-6.975 z"
     fill="#ffc69c"
     id="path32" />
  <path
     d="m 37.351295,117.14429 c -1.22,-0.076 -2.359,-0.303 -3.4967,-0.606 -1.1386,-0.304 -2.2772,-0.683 -3.3343,-1.289 1.2201,0 2.358,0.303 3.4966,0.606 1.1384,0.379 2.2774,0.683 3.3344,1.289 z"
     fill="#e09a69"
     id="path33" />
  <path
     d="m 36.049295,120.55529 c -1.138,0.152 -2.2762,0 -3.4148,-0.152 -1.1386,-0.151 -2.1958,-0.379 -3.2529,-0.834 1.1386,-0.152 2.2772,0 3.4158,0.152 1.0571,0.228 2.1949,0.455 3.2519,0.834 z"
     fill="#e09a69"
     id="path34" />
  <path
     d="m 33.367395,112.89729 c -0.4882,0.227 -0.8942,0.227 -1.3009,0.152 -0.4067,-0.076 -0.8133,-0.228 -1.22,-0.531 0.4881,-0.228 0.8948,-0.228 1.3015,-0.152 0.406,0.076 0.8127,0.228 1.2194,0.531 z"
     fill="#e09a69"
     id="path35" />
  <path
     d="m 189.98329,64.594691 47.652,173.950599 -105.469,21.687 L 82.319295,66.110991 Z"
     fill="#6386b8"
     id="path36" />
  <path
     d="m 121.27129,112.06329 -0.895,0.076 -5.447,-20.853001 -5.611,1.365 -0.163,-0.682 6.424,-1.441 z"
     fill="#d9eaff"
     id="path37" />
  <path
     d="m 142.57529,103.41829 c 0.651,2.426 0.569,4.322 -0.244,5.687 -0.813,1.441 -2.277,2.199 -4.391,2.275 -2.114,0.151 -3.985,-0.455 -5.611,-1.82 -1.545,-1.289 -2.684,-3.185 -3.334,-5.611 l -1.626,-6.218001 c -0.651,-2.427 -0.57,-4.323 0.325,-5.763 0.813,-1.441 2.358,-2.123 4.472,-2.199 2.114,-0.076 3.985,0.531 5.53,1.895 1.545,1.29 2.602,3.185 3.252,5.536 z m -2.439,-6.066001 c -0.57,-2.123 -1.546,-3.716 -2.846,-4.929 -1.383,-1.213 -3.01,-1.745 -4.879,-1.745 -1.952,0.076 -3.253,0.759 -3.985,2.048 -0.732,1.289 -0.732,2.957 -0.244,5.081 l 1.626,6.142001 c 0.569,2.123 1.546,3.791 2.928,5.004 1.382,1.213 3.008,1.82 4.96,1.669 1.87,-0.076 3.172,-0.835 3.903,-2.124 0.651,-1.289 0.732,-3.032 0.163,-5.08 z"
     fill="#d9eaff"
     id="path38" />
  <path
     d="m 146.23529,97.049289 -1.301,0.076 -0.488,-1.821 1.301,-0.075 z m 3.578,13.421001 -1.301,0.076 -0.488,-1.819 1.301,-0.076 z"
     fill="#d9eaff"
     id="path39" />
  <path
     d="m 156.64429,99.097289 c 1.789,-0.076 3.09,-0.531 3.822,-1.441 0.813,-0.91 0.975,-1.972 0.65,-3.185 -0.406,-1.365 -1.138,-2.502 -2.195,-3.336 -1.138,-0.834 -2.521,-1.289 -4.229,-1.213 -1.545,0.075 -2.765,0.53 -3.578,1.44 -0.813,0.91 -1.057,2.123 -0.65,3.64 h -0.651 l -0.081,-0.076 c -0.488,-1.668 -0.244,-3.033 0.651,-4.095 0.975,-1.061 2.276,-1.592 4.065,-1.668 1.871,-0.0759 3.415,0.379 4.798,1.365 1.383,0.986 2.277,2.275 2.684,3.943 0.325,1.062 0.162,2.048 -0.244,2.881 -0.488,0.91 -1.22,1.517 -2.359,1.972 1.464,0.303 2.684,0.834001 3.66,1.668001 0.975,0.835 1.626,1.896 2.032,3.185 0.489,1.744 0.244,3.185 -0.65,4.247 -0.894,1.061 -2.277,1.668 -4.147,1.743 -1.789,0.076 -3.578,-0.303 -5.205,-1.289 -1.707,-0.985 -2.764,-2.426 -3.171,-4.322 v -0.075 h 0.651 c 0.406,1.516 1.301,2.729 2.765,3.715 1.463,0.91 3.008,1.365 4.797,1.214 1.708,-0.076 3.009,-0.608 3.741,-1.517 0.732,-0.91 0.894,-2.123 0.488,-3.64 -0.407,-1.593 -1.301,-2.73 -2.602,-3.412 -1.302,-0.683 -2.928,-1.062001 -4.798,-0.911001 l -1.626,0.076 -0.245,-0.758001 z"
     fill="#d9eaff"
     id="path40" />
  <path
     d="m 180.38929,101.67529 c 0.65,2.275 0.569,4.095 -0.163,5.46 -0.732,1.364 -2.033,2.123 -4.066,2.199 -1.951,0.076 -3.659,-0.455 -5.204,-1.744 -1.463,-1.29 -2.521,-3.034 -3.172,-5.385 l -1.626,-5.914001 c -0.65,-2.275 -0.569,-4.17 0.163,-5.46 0.731,-1.365 2.114,-2.047 4.066,-2.123 1.951,-0.0753 3.659,0.531 5.123,1.82 1.463,1.289 2.52,3.033 3.09,5.308 z m -2.359,-5.839001 c -0.569,-1.971 -1.464,-3.564 -2.683,-4.777 -1.301,-1.137 -2.765,-1.744 -4.554,-1.668 -1.789,0.076 -3.009,0.682 -3.578,1.971 -0.65,1.214 -0.65,2.882 -0.081,4.929 l 1.627,5.914001 c 0.569,1.972 1.463,3.64 2.764,4.778 1.301,1.213 2.846,1.744 4.635,1.592 1.789,-0.076 2.927,-0.758 3.579,-2.047 0.568,-1.289 0.65,-2.882 0.08,-4.853 z"
     fill="#d9eaff"
     id="path41" />
  <path
     d="m 201.44929,167.72129 -74.324,9.023 c -2.439,0.303 -4.879,-1.289 -5.448,-3.564 l -3.009,-11.526 c -0.569,-2.275 0.894,-4.246 3.334,-4.55 l 74.568,-7.506 c 2.033,-0.228 4.147,1.289 4.717,3.335 l 2.846,10.541 c 0.569,2.123 -0.651,3.943 -2.684,4.247 z"
     fill="#7490c1"
     id="path42" />
  <path
     d="m 136.80229,168.48029 -0.651,0.076 -6.18,-5.915 1.707,6.37 -0.65,0.075 -1.951,-7.506 0.65,-0.076 6.181,5.839 -1.709,-6.37 0.651,-0.076 z"
     fill="#2f568e"
     id="path43" />
  <path
     d="m 140.86929,168.17729 c -0.732,0.076 -1.383,-0.076 -2.033,-0.531 -0.569,-0.455 -0.976,-1.062 -1.22,-1.895 l -0.081,-0.304 c -0.244,-0.758 -0.163,-1.441 0.163,-2.047 0.325,-0.531 0.894,-0.91 1.544,-0.986 0.732,-0.076 1.301,0.076 1.789,0.455 0.489,0.379 0.814,0.91 1.058,1.668 l 0.163,0.455 -3.985,0.455 0.081,0.152 c 0.163,0.606 0.488,1.137 0.894,1.516 0.407,0.379 0.976,0.531 1.546,0.455 0.325,-0.076 0.65,-0.151 0.894,-0.303 0.244,-0.152 0.488,-0.303 0.65,-0.531 l 0.407,0.379 c -0.162,0.228 -0.407,0.455 -0.65,0.607 -0.407,0.303 -0.732,0.379 -1.22,0.455 z m -1.383,-5.232 c -0.487,0.076 -0.813,0.227 -1.057,0.606 -0.244,0.379 -0.325,0.835 -0.244,1.365 l 3.335,-0.379 v -0.151 c -0.163,-0.456 -0.407,-0.91 -0.732,-1.138 -0.407,-0.227 -0.814,-0.303 -1.302,-0.303 z"
     fill="#2f568e"
     id="path44" />
  <path
     d="m 145.01529,165.75129 0.488,0.985 v -1.061 l 0.244,-3.792 0.569,-0.075 2.196,3.563 0.569,0.986 v -1.062 -3.791 l 0.65,-0.076 -0.244,5.612 -0.569,0.075 -2.277,-3.564 -0.488,-0.834 v 0.91 l -0.244,3.867 -0.569,0.076 -3.09,-5.308 0.651,-0.076 z"
     fill="#2f568e"
     id="path45" />
  <path
     d="m 158.51529,165.14429 1.138,-6.673 0.731,-0.076 1.952,7.204 -0.65,0.076 -1.627,-6.067 -1.057,6.37 -0.407,0.076 -4.39,-5.915 1.626,6.294 -0.651,0.076 -1.951,-7.28 0.813,-0.075 z"
     fill="#2f568e"
     id="path46" />
  <path
     d="m 166.15729,165.29529 c -0.732,0.076 -1.382,-0.076 -1.951,-0.53 -0.57,-0.456 -0.976,-1.062 -1.138,-1.821 l -0.082,-0.303 c -0.244,-0.758 -0.163,-1.441 0.163,-1.971 0.325,-0.531 0.813,-0.834 1.463,-0.91 0.651,-0.076 1.22,0.076 1.708,0.454 0.488,0.38 0.813,0.911 0.976,1.593 l 0.162,0.455 -3.822,0.455 0.082,0.151 c 0.162,0.608 0.488,1.138 0.894,1.441 0.407,0.38 0.895,0.531 1.464,0.456 0.325,-0.076 0.65,-0.152 0.895,-0.228 0.244,-0.152 0.406,-0.304 0.569,-0.531 l 0.325,0.379 c -0.162,0.228 -0.325,0.38 -0.65,0.607 -0.244,0.151 -0.569,0.227 -1.058,0.303 z m -1.382,-5.081 c -0.488,0.076 -0.813,0.228 -1.057,0.608 -0.244,0.378 -0.244,0.757 -0.163,1.289 l 3.171,-0.38 v -0.152 c -0.162,-0.454 -0.325,-0.833 -0.732,-1.137 -0.325,-0.152 -0.731,-0.303 -1.219,-0.228 z"
     fill="#2f568e"
     id="path47" />
  <path
     d="m 172.25629,163.09729 c -0.081,-0.228 -0.244,-0.456 -0.488,-0.608 -0.244,-0.151 -0.651,-0.303 -1.22,-0.303 -0.651,-0.075 -1.22,-0.151 -1.545,-0.378 -0.407,-0.228 -0.65,-0.532 -0.732,-0.911 -0.081,-0.379 0,-0.758 0.244,-1.061 0.244,-0.304 0.732,-0.531 1.302,-0.607 0.569,-0.075 1.137,0 1.544,0.303 0.407,0.228 0.732,0.607 0.814,1.062 l -0.569,0.076 c -0.082,-0.303 -0.245,-0.531 -0.57,-0.683 -0.325,-0.151 -0.651,-0.227 -1.139,-0.227 -0.406,0.076 -0.731,0.151 -0.894,0.379 -0.163,0.228 -0.244,0.455 -0.163,0.683 0.082,0.227 0.245,0.454 0.407,0.606 0.244,0.152 0.65,0.228 1.22,0.304 0.65,0.076 1.219,0.227 1.626,0.379 0.407,0.227 0.65,0.53 0.732,0.91 0.081,0.454 0,0.833 -0.244,1.137 -0.325,0.303 -0.732,0.531 -1.301,0.607 -0.651,0.075 -1.22,0 -1.708,-0.303 -0.487,-0.304 -0.732,-0.608 -0.813,-1.062 l 0.569,-0.076 c 0.163,0.379 0.326,0.606 0.732,0.758 0.325,0.152 0.732,0.152 1.139,0.152 0.407,-0.076 0.732,-0.152 0.976,-0.38 0.081,-0.303 0.162,-0.53 0.081,-0.757 z"
     fill="#2f568e"
     id="path48" />
  <path
     d="m 177.46129,162.48929 c -0.081,-0.227 -0.244,-0.455 -0.488,-0.607 -0.244,-0.151 -0.651,-0.303 -1.219,-0.303 -0.651,-0.076 -1.221,-0.151 -1.546,-0.379 -0.406,-0.227 -0.65,-0.455 -0.732,-0.91 -0.081,-0.379 0,-0.758 0.245,-1.062 0.243,-0.303 0.65,-0.53 1.219,-0.606 0.569,-0.076 1.139,0 1.545,0.303 0.407,0.228 0.732,0.607 0.813,1.062 l -0.569,0.076 c -0.081,-0.304 -0.244,-0.531 -0.569,-0.683 -0.325,-0.152 -0.651,-0.227 -1.057,-0.227 -0.407,0.075 -0.732,0.151 -0.895,0.379 -0.162,0.227 -0.243,0.455 -0.162,0.682 0.081,0.228 0.244,0.455 0.406,0.531 0.244,0.152 0.651,0.228 1.22,0.303 0.65,0.076 1.22,0.228 1.545,0.38 0.406,0.227 0.651,0.53 0.732,0.91 0.081,0.455 0,0.833 -0.244,1.137 -0.325,0.304 -0.732,0.531 -1.301,0.607 -0.65,0.075 -1.22,0 -1.626,-0.303 -0.488,-0.228 -0.732,-0.608 -0.814,-1.062 l 0.569,-0.076 c 0.163,0.379 0.326,0.606 0.732,0.758 0.326,0.152 0.732,0.152 1.139,0.152 0.407,-0.076 0.732,-0.152 0.976,-0.38 0.081,-0.151 0.163,-0.454 0.081,-0.682 z"
     fill="#2f568e"
     id="path49" />
  <path
     d="m 183.07329,163.24729 c -0.082,-0.152 -0.163,-0.304 -0.244,-0.455 -0.082,-0.152 -0.082,-0.304 -0.163,-0.379 -0.081,0.303 -0.325,0.606 -0.569,0.758 -0.244,0.228 -0.651,0.379 -1.057,0.379 -0.488,0.076 -0.976,0 -1.302,-0.303 -0.325,-0.228 -0.569,-0.607 -0.732,-1.062 -0.162,-0.455 0,-0.91 0.326,-1.213 0.325,-0.303 0.813,-0.531 1.464,-0.607 l 1.301,-0.152 -0.163,-0.682 c -0.081,-0.379 -0.325,-0.682 -0.569,-0.834 -0.325,-0.152 -0.651,-0.227 -1.138,-0.227 -0.407,0.075 -0.732,0.151 -0.895,0.379 -0.163,0.227 -0.244,0.455 -0.163,0.758 l -0.488,0.152 c -0.162,-0.379 -0.081,-0.759 0.245,-1.062 0.243,-0.303 0.731,-0.531 1.301,-0.606 0.568,-0.076 1.057,0 1.544,0.303 0.407,0.227 0.732,0.682 0.895,1.213 l 0.732,2.578 c 0.081,0.152 0.081,0.379 0.162,0.531 0.082,0.151 0.163,0.303 0.245,0.531 z m -2.033,-0.228 c 0.487,-0.076 0.813,-0.227 1.057,-0.455 0.244,-0.227 0.406,-0.53 0.488,-0.91 l -0.244,-0.985 -1.301,0.152 c -0.488,0.075 -0.813,0.227 -1.057,0.454 -0.245,0.227 -0.326,0.531 -0.245,0.835 0.082,0.303 0.245,0.53 0.489,0.682 0.162,0.227 0.487,0.303 0.813,0.227 z"
     fill="#2f568e"
     id="path50" />
  <path
     d="m 184.21129,160.44229 c -0.244,-0.835 -0.244,-1.517 0,-2.048 0.244,-0.53 0.651,-0.834 1.301,-0.909 0.407,-0.076 0.732,0 1.057,0.151 0.325,0.152 0.569,0.303 0.895,0.606 l -0.163,-0.833 0.488,-0.076 1.383,5.232 c 0.162,0.682 0.162,1.213 -0.163,1.592 -0.244,0.379 -0.732,0.607 -1.383,0.758 -0.244,0 -0.488,0 -0.813,0 -0.325,0 -0.569,-0.075 -0.813,-0.151 v -0.531 c 0.244,0.076 0.488,0.152 0.732,0.152 0.244,0 0.488,0 0.813,0 0.488,-0.076 0.895,-0.228 1.057,-0.531 0.163,-0.304 0.244,-0.683 0.081,-1.213 l -0.162,-0.759 c -0.081,0.303 -0.244,0.531 -0.488,0.683 -0.244,0.152 -0.569,0.303 -0.895,0.303 -0.65,0.076 -1.138,-0.075 -1.626,-0.531 -0.488,-0.455 -0.813,-1.061 -1.057,-1.82 z m 0.651,0.075 c 0.162,0.607 0.406,1.138 0.813,1.441 0.325,0.379 0.813,0.455 1.301,0.455 0.406,-0.076 0.65,-0.152 0.894,-0.379 0.244,-0.227 0.325,-0.455 0.407,-0.758 l -0.651,-2.502 c -0.244,-0.304 -0.487,-0.532 -0.732,-0.683 -0.325,-0.152 -0.65,-0.227 -0.975,-0.152 -0.488,0.076 -0.814,0.303 -0.976,0.759 -0.163,0.455 -0.163,0.985 0.081,1.668 z"
     fill="#2f568e"
     id="path51" />
  <path
     d="m 192.58729,162.26129 c -0.651,0.076 -1.301,-0.076 -1.789,-0.531 -0.569,-0.455 -0.895,-0.985 -1.139,-1.744 l -0.081,-0.227 c -0.244,-0.759 -0.163,-1.365 0.162,-1.896 0.326,-0.531 0.732,-0.834 1.383,-0.91 0.65,-0.075 1.138,0.076 1.627,0.455 0.487,0.379 0.731,0.91 0.975,1.592 l 0.082,0.456 -3.578,0.379 0.081,0.151 c 0.162,0.607 0.406,1.062 0.813,1.441 0.406,0.379 0.895,0.531 1.382,0.455 0.326,0 0.57,-0.152 0.813,-0.227 0.244,-0.152 0.407,-0.304 0.57,-0.531 l 0.325,0.379 c -0.163,0.227 -0.325,0.379 -0.569,0.531 -0.326,0.076 -0.651,0.151 -1.057,0.227 z m -1.383,-4.929 c -0.406,0.076 -0.732,0.228 -0.975,0.607 -0.163,0.379 -0.244,0.758 -0.163,1.289 l 2.927,-0.303 v -0.152 c -0.162,-0.455 -0.325,-0.834 -0.65,-1.062 -0.325,-0.303 -0.651,-0.379 -1.139,-0.379 z"
     fill="#2f568e"
     id="path52" />
  <path
     d="m 203.88929,149.37129 c 0.732,2.654 -0.814,5.081 -3.415,5.384 -2.684,0.304 -5.449,-1.668 -6.181,-4.398 -0.732,-2.729 0.814,-5.08 3.497,-5.383 2.684,-0.228 5.367,1.743 6.099,4.397 z"
     fill="#e25e44"
     id="path53" />
  <path
     d="m 199.98629,152.17629 -1.057,0.076 -0.487,-3.792 -0.895,0.076 -0.082,-0.835 1.952,-0.378 z"
     fill="#ffffff"
     id="path54" />
  <path
     d="m 155.01829,210.10929 -6.262,-23.734 39.846,-5.384 6.18,22.748 -0.325,0.076 z m -5.53,-23.279 6.018,22.673 38.544,-6.218 -5.855,-21.687 z"
     fill="#d9eaff"
     id="path55" />
  <path
     d="m 172.25829,195.55029 -23.258,-8.644 0.245,-0.531 22.85,8.569 16.101,-13.801 0.406,0.379 z"
     fill="#d9eaff"
     id="path56" />
  <path
     d="m 182.50229,242.03329 c -1.626,0 -3.171,-1.138 -3.659,-2.806 -0.244,-0.91 -0.082,-1.971 0.407,-2.73 0.488,-0.682 1.22,-1.213 2.114,-1.365 1.87,-0.379 3.822,0.834 4.31,2.73 0.244,0.91 0.081,1.896 -0.407,2.73 -0.488,0.682 -1.22,1.214 -2.114,1.365 -0.163,0.076 -0.407,0.076 -0.651,0.076 z m -0.488,-6.142 c -0.162,0 -0.325,0 -0.487,0.075 -0.651,0.152 -1.22,0.455 -1.545,0.986 -0.407,0.607 -0.569,1.365 -0.326,2.124 0.407,1.516 1.871,2.426 3.334,2.198 0.651,-0.151 1.22,-0.454 1.545,-1.061 0.407,-0.607 0.488,-1.365 0.325,-2.123 -0.325,-1.289 -1.545,-2.199 -2.846,-2.199 z"
     fill="#d9eaff"
     id="path57" />
  <path
     d="m 192.91229,239.75929 -1.626,-6.142 6.099,-1.138 1.626,6.067 z m -0.651,-5.612 1.22,4.626 4.473,-0.91 -1.22,-4.625 z"
     fill="#d9eaff"
     id="path58" />
  <path
     d="m 173.15129,244.00429 -7.074,-2.351 5.204,-4.701 z m -5.529,-2.578 4.391,1.441 -1.138,-4.398 z"
     fill="#d9eaff"
     id="path59" />
  <path
     d="m 85.736295,52.689991 87.008995,-0.152 c 6.505,0 12.279,4.7775 13.662,11.3746 l 0.162,0.6825 -104.329995,1.4404 49.927995,194.120799 102.135,-20.928 2.521,9.099 c 1.057,4.929 -2.683,9.099 -7.156,10.161 l -84.001,18.881 c -7.725,1.744 -15.368,-2.426 -16.914,-10.389 L 77.034295,62.395691 c -0.894,-5.0802 3.253,-9.7057 8.702,-9.7057 z"
     fill="#080638"
     id="path60" />
  <path
     d="m 82.319295,53.297291 3.903,-1.4409 1.139,1.4409 -3.741,1.5923 z"
     fill="#080638"
     id="path61" />
  <path
     d="m 89.557295,51.248991 h 86.357995 c 6.506,0 12.198,4.7775 13.581,11.2986 l 0.406,2.0475 -107.663995,1.5163 -1.301,-5.1561 c -0.895,-5.0808 3.171,-9.7063 8.62,-9.7063 z"
     fill="#0b2751"
     id="path62" />
  <path
     d="m 132.16629,260.23129 105.469,-21.611 2.115,7.735 c 1.057,4.928 -1.952,10.312 -6.343,11.298 l -84.245,18.957 c -7.644,1.744 -14.393,-2.805 -15.938,-10.691 z"
     fill="#0b2751"
     id="path63" />
  <path
     d="m 183.80529,259.24629 c 0.65,2.654 3.171,4.473 5.61,3.867 2.44,-0.531 3.904,-3.109 3.253,-5.763 -0.65,-2.654 -3.09,-4.398 -5.529,-3.868 -2.44,0.532 -3.903,3.11 -3.334,5.764 z"
     fill="#2f568e"
     id="path64" />
  <path
     d="m 135.98929,59.363891 18.215,-0.152 c 0.569,0 0.894,-0.5305 0.813,-1.0617 -0.081,-0.3792 -0.407,-0.6825 -0.813,-0.6825 l -18.215,0.1519 c -0.569,0 -0.976,0.5306 -0.814,1.0618 0.082,0.3786 0.407,0.6825 0.814,0.6825 z"
     fill="#2f568e"
     id="path65" />
  <path
     d="m 129.72729,58.528191 c 0.163,0.6825 0.895,1.2891 1.626,1.2891 0.732,0 1.221,-0.6066 0.977,-1.2891 -0.163,-0.6825 -0.895,-1.289 -1.627,-1.289 -0.65,0.076 -1.139,0.6065 -0.976,1.289 z"
     fill="#2f568e"
     id="path66" />
  <path
     opacity="0.05"
     d="m 136.39529,51.248991 h 39.52 c 6.506,0 12.198,4.7775 13.58,11.2986 l 50.255,183.731699 c 1.057,4.929 -1.952,10.313 -6.343,11.299 l -20.492,4.626 z"
     fill="#ffffff"
     id="path67" />
  <path
     d="m 210.39529,102.50829 7.481,6.825 2.846,-1.668 -1.708,-10.010001 z"
     fill="#e29f71"
     id="path68" />
  <path
     d="m 296.83429,46.396891 c 0,0 2.603,-10.9951 14.882,-5.9146 12.36,5.0805 8.213,27.9808 5.61,34.7292 -2.602,6.748998 -1.545,16.682798 -0.731,18.198798 -3.172,-2.957 -4.147,-6.445 -4.147,-6.445 0,0 -0.57,10.009 0.894,13.118001 -6.018,-3.184001 -8.051,-10.464001 -7.725,-17.667601 0.325,-7.204198 -1.464,-17.895698 -1.464,-17.895698 z"
     fill="#333333"
     id="path69" />
  <path
     d="m 311.55229,54.585791 c -2.195,-8.6444 -10.246,-9.706 -14.23,-9.706 -0.407,0.8341 -0.57,1.5166 -0.57,1.5166 l 7.319,18.199 c 0,0 1.464,8.8719 1.464,15.923598 2.358,-4.0944 8.457,-16.378798 6.017,-25.933198 z"
     fill="#333333"
     id="path70" />
  <path
     d="m 298.62429,46.548091 c 0,0 2.683,-2.1232 5.448,0 2.765,2.1232 2.44,4.8532 0.976,6.2182 -1.464,1.289 -6.424,-6.2182 -6.424,-6.2182 z"
     fill="#269999"
     id="path71" />
  <path
     d="m 278.05129,48.899291 c 0,0 7.644,-4.8531 19.842,-3.4124 12.197,1.4408 10.409,20.2461 5.529,27.2984 -4.96,7.051698 -17.971,8.947898 -17.971,8.947898 z"
     fill="#333333"
     id="path72" />
  <path
     d="m 280.65229,48.595391 c 0,0 -8.782,-1.8957 -7.806,3.6397 3.496,-0.3792 4.635,-0.3792 4.635,-0.3792 z"
     fill="#333333"
     id="path73" />
  <path
     d="m 280.65329,48.595191 c 0,0 -6.424,-1.2891 -11.873,9.8575 -5.448,11.2227 -4.309,18.502298 -4.309,18.502298 l 13.661,6.749 -6.099,14.0283 -10.49,2.047 c 0,0 -3.09,0.531001 -5.855,4.398001 3.903,5.081 8.213,6.218 8.213,6.218 l 40.009,2.73 c 0,0 1.789,-3.261 -4.31,-6.901 -6.099,-3.639 -16.914,-9.099001 -16.914,-9.099001 l 7.968,-24.416598 6.425,-10.3882 c 0,0.0753 -12.279,-14.4836 -16.426,-13.7253 z"
     fill="#ffc69c"
     id="path74" />
  <path
     d="m 280.49129,48.063391 c 0,0 0,6.3693 1.626,9.4785 1.627,3.1093 4.636,7.1277 1.87,-3.4125 4.067,7.2796 8.539,12.815 10.978,13.6494 3.009,-4.1703 4.798,-7.5828 4.798,-7.5828 l -6.099,-7.5829 z"
     fill="#333333"
     id="path75" />
  <path
     d="m 290.24929,70.206391 c 0,0 5.855,-4.7015 7.644,-0.5311 1.789,4.1709 -6.018,8.568598 -9.596,5.2321"
     fill="#ffc69c"
     id="path76" />
  <path
     d="m 290.24929,75.892891 c -0.406,0.151998 -0.895,0.076 -1.22,-0.0753 -0.325,-0.2279 -0.65,-0.5312 -0.732,-0.9104 0.489,0.0759 0.814,0.1519 1.057,0.3032 0.326,0.152 0.57,0.3033 0.895,0.6825 z"
     fill="#e09a69"
     id="path77" />
  <path
     d="m 290.24929,70.205891 c 0.325,-0.6072 0.812,-0.9858 1.3,-1.289 0.569,-0.3039 1.139,-0.5312 1.871,-0.5312 -0.488,0.4552 -0.976,0.7584 -1.464,1.1377 -0.488,0.2273 -1.057,0.5305 -1.707,0.6825 z"
     fill="#e09a69"
     id="path78" />
  <path
     d="m 312.61129,84.159089 c 0.245,1.2137 0.407,2.5027 0.407,3.7158 0,0.6065 0,1.213 0.081,1.8954 0.082,0.607 0.244,1.214 0.489,1.82 0.406,1.213 0.812,2.351 1.3,3.488 0.407,1.138 0.895,2.275 1.301,3.489 h -0.081 c -0.813,-0.986 -1.463,-2.124 -2.033,-3.262 -0.487,-1.213 -0.813,-2.426 -0.976,-3.639 -0.081,-0.607 -0.163,-1.213 -0.325,-1.896 -0.163,-0.606 -0.325,-1.2129 -0.407,-1.8194 -0.162,-1.2891 -0.162,-2.5781 0.244,-3.7918 z"
     fill="#595959"
     id="path79" />
  <path
     d="m 201.53029,270.39329 -28.623,12.436 37.893,-5.005 -3.334,-9.175 z"
     fill="#ffb500"
     id="path80" />
  <path
     d="m 302.60829,267.96629 -2.765,12.512 -14.149,7.28 h 24.233 l 3.253,-20.929 -7.807,-2.123 z"
     fill="#ffb500"
     id="path81" />
  <path
     d="m 250.97329,151.49529 c 0,0 -36.918,86.672 -49.441,118.899 2.114,1.137 5.854,0.303 5.854,0.303 0,0 29.681,-26.843 23.013,-46.256 l 32.283,-36.776 5.368,53.08 34.885,29.118 2.439,-5.157 c 0,0 -12.523,-28.587 -25.696,-30.862 15.043,-26.009 18.052,-53.383 4.879,-70.293 -17.728,-10.54 -33.584,-12.056 -33.584,-12.056 z"
     fill="#269999"
     id="path82" />
  <path
     d="m 256.17729,103.57129 c 0,0 8.782,3.943 22.688,6.066 13.824,2.123 25.289,3.034 25.289,3.034 0,0 0.325,8.189 -8.945,19.791 -9.27,11.526 -14.312,15.772 -14.312,15.772 l -1.301,3.943 c 0,0 4.554,1.82 0.326,2.578 5.367,5.156 6.993,7.28 3.74,6.37 3.578,2.426 4.228,5.308 4.228,5.308 0,0 -26.428,1.82 -36.836,-15.014 -0.976,-2.73 -1.952,-6.066 0.488,-3.791 0.325,-4.551 2.277,-19.488 2.277,-19.488 l -2.765,-3.943 -17.646,17.061 -16.101,-31.772 3.903,-3.185 14.8,19.185 z"
     fill="#ffffff"
     id="path83" />
  <path
     d="m 256.82629,109.10629 c -1.382,2.199 -2.765,4.398 -4.065,6.597 -0.651,1.137 -1.22,2.275 -1.789,3.412 l -0.407,0.91 c -0.082,0.303 -0.244,0.607 -0.325,0.91 -0.082,0.304 -0.163,0.607 -0.244,0.91 -0.082,0.303 0,0.607 -0.082,0.986 -0.325,-1.289 0,-2.578 0.407,-3.792 0.407,-1.213 1.057,-2.426 1.708,-3.564 1.464,-2.351 3.008,-4.473 4.797,-6.369 z"
     fill="#b1cbe5"
     id="path84" />
  <path
     d="m 289.43629,116.68829 c 0,0 -13.092,21.535 -15.37,23.507 -2.114,-0.91 -2.52,-0.683 -1.382,1.44 -2.683,-2.123 -21.386,-21.914 -21.386,-21.914 l -5.936,3.564 25.208,31.393 c 0,0 8.131,-3.867 10.327,-6.521"
     fill="#ffffff"
     id="path85" />
  <path
     d="m 250.89129,120.02429 c 0,0 -4.553,-11.071 -8.538,-16.076 -3.984,-5.004001 -5.611,-5.914001 -5.611,-5.914001 0,0 -0.813,1.138 -0.406,2.957001 0.406,1.82 4.716,6.673 5.367,8.341 -4.798,0.152 -6.343,5.157 -6.75,7.356 -0.407,2.199 3.335,8.189 3.822,4.246 1.139,1.289 6.912,2.199 6.912,2.199 z"
     fill="#ffc69c"
     id="path86" />
  <path
     d="m 245.28029,123.36229 c 2.195,2.578 4.391,5.157 6.505,7.735 2.115,2.578 4.31,5.156 6.424,7.81 2.115,2.578 4.229,5.232 6.343,7.81 2.115,2.654 4.229,5.233 6.262,7.886 l -0.326,-0.075 c 1.87,-0.835 3.659,-1.82 5.448,-2.806 0.895,-0.531 1.789,-0.986 2.603,-1.592 0.813,-0.531 1.707,-1.138 2.358,-1.896 -0.651,0.758 -1.464,1.44 -2.277,2.047 -0.813,0.607 -1.707,1.138 -2.521,1.744 -1.707,1.062 -3.578,2.048 -5.367,2.957 l -0.162,0.076 -0.163,-0.151 c -2.196,-2.579 -4.229,-5.233 -6.343,-7.811 -2.114,-2.578 -4.228,-5.232 -6.261,-7.886 -2.114,-2.654 -4.148,-5.232 -6.262,-7.886 -2.195,-2.578 -4.228,-5.308 -6.261,-7.962 z"
     fill="#b1cbe5"
     id="path87" />
  <path
     d="m 289.43629,116.68829 c -2.358,4.094 -4.717,8.114 -7.156,12.057 -1.22,1.971 -2.44,3.943 -3.741,5.914 -0.65,0.986 -1.301,1.972 -1.951,2.957 -0.326,0.456 -0.651,0.986 -1.057,1.441 l -0.57,0.683 c -0.162,0.227 -0.406,0.455 -0.65,0.682 l -0.163,0.152 -0.244,-0.076 c -0.325,-0.152 -0.65,-0.228 -0.894,-0.379 -0.163,-0.076 -0.325,-0.076 -0.407,-0.076 -0.163,0 -0.163,0 -0.081,-0.076 0,-0.076 0,0.076 0,0.228 0,0.151 0.081,0.303 0.163,0.379 0.081,0.303 0.243,0.606 0.406,0.834 l 0.895,1.744 -1.464,-1.289 c -1.952,-1.744 -3.66,-3.564 -5.53,-5.384 -1.789,-1.82 -3.578,-3.64 -5.285,-5.536 -3.497,-3.715 -6.994,-7.431 -10.328,-11.222 3.578,3.64 7.156,7.279 10.734,10.919 l 5.367,5.46 c 1.789,1.82 3.578,3.64 5.448,5.308 l -0.568,0.455 c -0.163,-0.303 -0.326,-0.607 -0.489,-0.91 -0.081,-0.152 -0.163,-0.303 -0.163,-0.531 0,-0.152 -0.162,-0.379 0.082,-0.758 0.081,-0.152 0.325,-0.303 0.488,-0.303 0.162,0 0.244,0 0.407,0 0.243,0 0.406,0.075 0.569,0.151 0.325,0.076 0.65,0.228 0.975,0.379 l -0.406,0.076 c 0.163,-0.227 0.406,-0.379 0.569,-0.606 l 0.569,-0.683 c 0.325,-0.455 0.651,-0.91 1.057,-1.441 0.651,-0.986 1.301,-1.895 1.952,-2.881 l 3.904,-5.839 z"
     fill="#b1cbe5"
     id="path88" />
  <path
     d="m 218.52729,93.105289 c 0,0 2.033,-0.985 2.927,2.275 0.895,3.261 2.928,6.673001 -2.195,3.867 -1.87,-3.791 -0.732,-6.142 -0.732,-6.142 z"
     fill="#e29f71"
     id="path89" />
  <path
     d="m 218.68829,122.90829 -11.059,-53.004399 3.984,-0.7585 11.548,53.382899 z"
     fill="#0b2751"
     id="path90" />
  <path
     d="m 208.11829,89.618289 c 0,0 7.807,0.986 10.653,1.896 2.846,0.91 0.488,3.716 0.488,3.716 0,0 1.708,1.061 0.731,2.881 0.732,1.82 -0.243,2.881001 -0.243,2.881001 0,0 1.301,2.124 -0.894,2.503 -2.196,0.379 -7.563,0.151 -8.946,-0.682 -1.382,-0.911 -4.147,-13.574001 -1.789,-13.195001 z"
     fill="#ffc69c"
     id="path91" />
  <path
     d="m 167.53929,83.173389 80.504,-10.919398 -15.124,-65.6671992 -79.854,22.5968992 z"
     fill="#080638"
     id="path92" />
  <path
     d="m 166.72729,82.414089 80.505,-10.919398 -15.126,-65.6675992 -79.854,22.5967992 z"
     fill="#269999"
     id="path93" />
  <path
     d="m 175.59129,66.641091 -3.903,-25.9331 41.554,-10.7676 6.342,27.9807 z"
     fill="#ffb500"
     id="path94" />
  <path
     d="m 171.68829,40.707991 c 3.822,1.3649 7.563,2.8056 11.303,4.3222 3.741,1.4407 7.481,2.9573 11.222,4.5497 l -0.732,0.1517 c 3.172,-3.3364 6.424,-6.6729 9.677,-10.0094 l 4.96,-4.9288 c 1.708,-1.5924 3.335,-3.2606 5.042,-4.853 -1.464,1.744 -3.009,3.4881 -4.554,5.2321 l -4.635,5.1564 c -3.171,3.4122 -6.343,6.7487 -9.514,10.1609 l -0.325,0.3034 -0.407,-0.1517 c -3.741,-1.5924 -7.4,-3.1848 -11.059,-4.853 -3.74,-1.5924 -7.4,-3.2606 -10.978,-5.0805 z"
     fill="#e88f00"
     id="path95" />
  <path
     d="m 215.03029,38.888691 c 4.58,0 8.294,-3.9042 8.294,-8.7203 0,-4.816 -3.714,-8.7202 -8.294,-8.7202 -4.581,0 -8.295,3.9042 -8.295,8.7202 0,4.8161 3.714,8.7203 8.295,8.7203 z"
     fill="#e25e44"
     id="path96" />
  <path
     d="m 216.25029,34.036091 -1.708,0.3033 -0.325,-6.6729 -1.707,0.3033 -0.082,-1.2132 3.415,-0.91 z"
     fill="#ffffff"
     id="path97" />
  <path
     d="m 274.87929,62.168891 c -0.325,1.5163 -0.65,2.9573 -1.139,4.3982 l -0.08,0.3033 -0.326,-0.1519 c -0.976,-0.3793 -2.033,-0.7585 -3.009,-1.1371 l 0.407,-0.5312 c 1.139,1.2137 2.277,2.5027 3.253,3.7917 -1.302,-1.0617 -2.603,-2.1994 -3.741,-3.3365 l -1.138,-1.0617 1.545,0.5305 c 0.975,0.3793 2.032,0.7585 3.009,1.1377 l -0.489,0.2273 c 0.407,-1.365 0.976,-2.8053 1.708,-4.1703 z"
     fill="#e09a69"
     id="path98" />
  <path
     d="m 270.73329,70.813691 c 0,0 10.653,-0.5311 13.092,0.4546 -2.114,8.038098 -10.571,8.644598 -13.092,-0.4546 z"
     fill="#080638"
     id="path99" />
  <path
     d="m 274.55329,70.737291 v 1.1377 l 8.457,1.7436 c 0.325,-0.6825 0.651,-1.4403 0.895,-2.2748 -1.545,-0.6825 -6.017,-0.6825 -9.352,-0.6065 z"
     fill="#ffffff"
     id="path100" />
  <path
     d="m 296.10329,70.737691 c -0.081,-0.3033 -0.243,-0.5306 -0.406,-0.6825 -0.163,-0.1513 -0.407,-0.2273 -0.651,-0.2273 -0.488,0 -1.057,0.2273 -1.545,0.4546 -0.488,0.2279 -0.976,0.5312 -1.463,0.8344 -0.488,0.3033 -0.976,0.6065 -1.383,0.9098 v -0.4552 c 0.163,0.1519 0.407,0.3792 0.488,0.6072 l 0.082,0.2273 c 0,0.0759 0,0.1513 0,0.2272 0,0.228 -0.163,0.3793 -0.326,0.4553 -0.244,0.1513 -0.569,0.1513 -0.813,0.2272 -0.244,0 -0.488,0 -0.732,-0.0759 0.244,-0.0754 0.488,-0.0754 0.732,-0.1513 0.244,-0.076 0.407,-0.152 0.569,-0.3033 0.081,-0.1519 0.081,-0.152 -0.081,-0.3033 -0.081,-0.1519 -0.325,-0.3032 -0.488,-0.3792 l -0.325,-0.2273 0.325,-0.2279 c 0.488,-0.3793 0.895,-0.6825 1.382,-0.9858 0.244,-0.1513 0.488,-0.3032 0.732,-0.4546 0.244,-0.1519 0.488,-0.3032 0.814,-0.3792 0.568,-0.2279 1.138,-0.3792 1.869,-0.3033 0.326,0.0754 0.651,0.2273 0.895,0.4546 0.325,0.152 0.407,0.4552 0.325,0.7585 z"
     fill="#e09a69"
     id="path101" />
  <path
     d="m 277.40029,63.761191 c -0.082,0.7585 0.325,1.365 0.813,1.441 0.487,0.076 0.976,-0.5312 1.057,-1.289 0.082,-0.7585 -0.325,-1.365 -0.813,-1.441 -0.488,-0.076 -0.976,0.5305 -1.057,1.289 z"
     fill="#080638"
     id="path102" />
  <path
     d="m 271.13829,62.698091 c -0.082,0.7585 0.325,1.365 0.813,1.441 0.488,0.076 0.976,-0.5305 1.057,-1.289 0.081,-0.7585 -0.325,-1.365 -0.813,-1.441 -0.569,0 -1.057,0.5312 -1.057,1.289 z"
     fill="#080638"
     id="path103" />
  <path
     d="m 277.40129,60.197591 c 0,0 3.822,-4.7776 5.936,2.1234 z"
     fill="#333333"
     id="path104" />
  <path
     d="m 275.69229,59.286791 c 0,0 -0.325,-5.384 -4.879,0.2273 z"
     fill="#333333"
     id="path105" />
  <path
     d="m 288.62329,105.99729 c -1.139,-0.076 -2.277,-0.152 -3.416,-0.227 l -3.415,-0.303 c -2.277,-0.152 -4.554,-0.455 -6.749,-0.683 l 0.243,-0.076 c -0.731,0.455 -1.463,0.834 -2.357,1.062 -0.244,0.075 -0.489,0.075 -0.814,0.075 -0.162,0 -0.325,-0.151 -0.487,-0.303 -0.082,-0.151 -0.082,-0.303 -0.082,-0.454 0.082,-0.532 0.244,-0.835 0.407,-1.214 l 0.244,0.455 -3.741,-0.758 c -0.651,-0.152 -1.22,-0.304 -1.87,-0.455 -0.651,-0.152 -1.22,-0.303 -1.871,-0.455 0.651,0.076 1.22,0.152 1.871,0.227 0.65,0.076 1.219,0.152 1.87,0.228 l 3.741,0.531 0.406,0.076 -0.163,0.379 c -0.162,0.303 -0.325,0.682 -0.325,0.986 0,0.075 0,0.075 0,0.075 0.082,0 0.245,0 0.407,-0.075 0.732,-0.228 1.464,-0.607 2.114,-0.986 l 0.082,-0.076 h 0.162 c 2.277,0.227 4.473,0.53 6.749,0.834 l 3.335,0.455 c 1.463,0.303 2.601,0.455 3.659,0.682 z"
     fill="#e09a69"
     id="path106" />
  <path
     d="m 240.72629,110.62229 c -0.651,0.38 -1.301,0.607 -2.033,0.759 -0.651,0.151 -1.383,0.303 -2.114,0.227 0.65,-0.379 1.3,-0.606 2.032,-0.758 0.651,-0.152 1.383,-0.304 2.115,-0.228 z"
     fill="#e09a69"
     id="path107" />
  <path
     d="m 239.83229,113.04929 c -0.732,0.378 -1.463,0.53 -2.195,0.758 -0.407,0.076 -0.732,0.152 -1.139,0.227 -0.406,0.076 -0.731,0.076 -1.138,0.152 0.325,-0.227 0.65,-0.455 1.057,-0.607 0.407,-0.152 0.732,-0.227 1.139,-0.379 0.731,-0.076 1.463,-0.227 2.276,-0.151 z"
     fill="#e09a69"
     id="path108" />
  <path
     d="m 239.42429,115.24729 c -0.813,0.228 -1.545,0.38 -2.359,0.531 -0.812,0.152 -1.544,0.303 -2.357,0.455 0.568,-0.606 1.463,-0.834 2.276,-0.986 0.813,-0.152 1.627,-0.152 2.44,0 z"
     fill="#e09a69"
     id="path109" />
  <path
     d="m 238.61329,120.48129 c -0.407,-0.531 -0.651,-1.062 -0.976,-1.592 -0.163,-0.228 -0.244,-0.532 -0.407,-0.759 -0.163,-0.227 -0.325,-0.53 -0.569,-0.758 0.326,0 0.651,0.228 0.894,0.455 0.244,0.227 0.407,0.53 0.569,0.758 0.326,0.683 0.489,1.289 0.489,1.896 z"
     fill="#e09a69"
     id="path110" />
  <path
     d="m 238.12329,116.99329 c 0.163,0.303 0.163,0.606 0.081,0.834 -0.081,0.303 -0.163,0.53 -0.325,0.834 -0.244,-0.304 -0.244,-0.607 -0.244,-0.91 0.081,-0.304 0.244,-0.531 0.488,-0.758 z"
     fill="#e09a69"
     id="path111" />
  <path
     d="m 219.25729,95.229289 c -1.463,-0.076 -2.927,-0.379 -4.391,-0.758 -1.382,-0.379 -2.846,-0.759 -4.147,-1.441 1.463,0.076 2.927,0.379 4.391,0.758 1.382,0.38 2.846,0.834 4.147,1.441 z"
     fill="#e09a69"
     id="path112" />
  <path
     d="m 220.07129,98.110289 c -1.464,0 -2.927,-0.303 -4.31,-0.53 -1.383,-0.304 -2.846,-0.683 -4.147,-1.214 1.464,0 2.927,0.303 4.31,0.531 1.382,0.303 2.764,0.607 4.147,1.213 z"
     fill="#e09a69"
     id="path113" />
  <path
     d="m 219.82729,100.99329 c -1.301,0.076 -2.52,-0.076 -3.821,-0.303 -1.22,-0.228 -2.44,-0.531 -3.66,-0.986001 1.301,-0.076 2.521,0.076 3.822,0.303001 1.22,0.228 2.439,0.455 3.659,0.986 z"
     fill="#e09a69"
     id="path114" />
  <path
     d="m 255.60829,176.66929 c 1.301,1.744 2.521,3.564 3.659,5.384 l 1.789,2.73 c 0.569,0.909 1.22,1.819 1.789,2.654 h -0.651 c 1.139,-1.441 2.278,-2.882 3.578,-4.247 0.651,-0.682 1.301,-1.289 2.033,-1.896 0.732,-0.606 1.545,-1.137 2.44,-1.44 -0.813,0.379 -1.545,0.986 -2.196,1.668 -0.651,0.683 -1.301,1.289 -1.87,1.972 -1.138,1.365 -2.277,2.805 -3.334,4.246 l -0.325,0.454 -0.326,-0.454 c -0.65,-0.91 -1.22,-1.82 -1.87,-2.73 -0.569,-0.91 -1.139,-1.82 -1.708,-2.805 -0.894,-1.745 -2.032,-3.64 -3.008,-5.536 z"
     fill="#0b2751"
     fill-opacity="0.1"
     id="path115" />
  <path
     d="m 283.98729,161.88329 c -2.033,0 -3.984,-0.227 -6.017,-0.531 -1.952,-0.303 -3.984,-0.758 -5.855,-1.289 -1.952,-0.531 -3.822,-1.213 -5.692,-1.971 -1.871,-0.759 -3.578,-1.744 -5.286,-2.806 0.895,0.379 1.789,0.834 2.683,1.213 0.489,0.152 0.895,0.38 1.383,0.531 l 1.383,0.531 c 1.87,0.682 3.74,1.289 5.692,1.82 1.951,0.53 3.822,0.986 5.773,1.441 0.976,0.227 1.952,0.378 2.928,0.606 1.057,0.152 2.033,0.304 3.008,0.455 z"
     fill="#b1cbe5"
     id="path116" />
  <path
     d="m 253.89929,151.26629 c 1.138,0.986 2.276,1.896 3.415,2.882 1.139,0.909 2.277,1.895 3.497,2.73 1.22,0.909 2.358,1.743 3.659,2.578 1.301,0.757 2.52,1.516 3.903,2.198 -1.463,-0.379 -2.927,-0.985 -4.228,-1.744 -1.302,-0.758 -2.603,-1.592 -3.823,-2.502 -2.358,-1.744 -4.553,-3.792 -6.423,-6.142 z"
     fill="#b1cbe5"
     id="path117" />
</svg>
